<?xml version="1.0" encoding="UTF-8" standalone="no"?>
<svg
   xmlns:dc="http://purl.org/dc/elements/1.1/"
   xmlns:cc="http://creativecommons.org/ns#"
   xmlns:rdf="http://www.w3.org/1999/02/22-rdf-syntax-ns#"
   xmlns:svg="http://www.w3.org/2000/svg"
   xmlns="http://www.w3.org/2000/svg"
   xmlns:sodipodi="http://sodipodi.sourceforge.net/DTD/sodipodi-0.dtd"
   xmlns:inkscape="http://www.inkscape.org/namespaces/inkscape"
   fill="none"
   viewBox="0 0 348 348"
   version="1.1"
   id="svg34"
   sodipodi:docname="Inner Connections.svg"
   inkscape:version="1.0.2-2 (e86c870879, 2021-01-15)">
  <metadata
     id="metadata40">
    <rdf:RDF>
      <cc:Work
         rdf:about="">
        <dc:format>image/svg+xml</dc:format>
        <dc:type
           rdf:resource="http://purl.org/dc/dcmitype/StillImage" />
        <dc:title />
      </cc:Work>
    </rdf:RDF>
  </metadata>
  <defs
     id="defs38" />
  <sodipodi:namedview
     pagecolor="#ffffff"
     bordercolor="#666666"
     borderopacity="1"
     objecttolerance="10"
     gridtolerance="10"
     guidetolerance="10"
     inkscape:pageopacity="0"
     inkscape:pageshadow="2"
     inkscape:window-width="1920"
     inkscape:window-height="1017"
     id="namedview36"
     showgrid="true"
     inkscape:zoom="1.7271287"
     inkscape:cx="199.65174"
     inkscape:cy="165.96341"
     inkscape:window-x="-8"
     inkscape:window-y="-8"
     inkscape:window-maximized="1"
     inkscape:current-layer="svg34"
     inkscape:document-rotation="0">
    <inkscape:grid
       type="xygrid"
       id="grid865" />
  </sodipodi:namedview>
  <path
     stroke="#000"
     stroke-width="2"
     d="M5.08 5.776h336.91v337.67H5.08z"
     id="path2" />
  <path
     d="M283.115 46.718c0-11.57 9.623-20.948 21.494-20.948 5.696 0 11.164 2.197 15.192 6.134 4.033 3.923 6.3 9.255 6.3 14.808 0 11.56-9.625 20.94-21.495 20.94-11.872 0-21.495-9.38-21.495-20.954z"
     stroke="#000"
     stroke-width="2.763"
     id="path4"
     style="stroke-width:2.763;stroke-miterlimit:4;stroke-dasharray:none" />
  <path
     style="fill:#505050;stroke:#000000;stroke-width:2.763;stroke-linecap:butt;stroke-linejoin:miter;stroke-miterlimit:4;stroke-dasharray:none;stroke-opacity:1;fill-opacity:1"
     d="m 140,20 c 70,0 70,0 70,0 v 70 h -70 z"
     id="path869" />
  <path
     style="fill:#dcdcdc;stroke:#000000;stroke-width:2.763;stroke-linecap:butt;stroke-linejoin:miter;stroke-miterlimit:4;stroke-dasharray:none;stroke-opacity:1;fill-opacity:1"
     d="m 80,150 -40,30 40,30 z"
     id="path873" />
  <path
     style="fill:#dcdcdc;stroke:#000000;stroke-width:2.763;stroke-linecap:butt;stroke-linejoin:miter;stroke-miterlimit:4;stroke-dasharray:none;stroke-opacity:1;fill-opacity:1"
     d="m 270,150 v 60 l 40,-30 z"
     id="path875" />
  <text
     xml:space="preserve"
     style="font-style:normal;font-weight:normal;font-size:40px;line-height:1.25;font-family:sans-serif;fill:#000000;fill-opacity:1;stroke:none"
     x="60"
     y="260"
     id="text923"><tspan
       sodipodi:role="line"
       id="tspan921"
       x="60"
       y="260" /></text>
  <path
     style="fill:#dcdcdc;stroke:#000000;stroke-width:2.763;stroke-linecap:butt;stroke-linejoin:miter;stroke-opacity:1;stroke-miterlimit:4;stroke-dasharray:none;fill-opacity:1"
     d="m 100,220 v -80 l 20,-40 h 110 l 20,40 v 80 l -20,40 H 120 Z"
     id="path862" />
  <ellipse
     style="opacity:1;fill:#969696;fill-opacity:1;stroke:#000000;stroke-width:2.64955;stroke-linejoin:round;stroke-miterlimit:4;stroke-dasharray:none;stroke-opacity:1"
     id="path864"
     cx="173.61852"
     cy="-300.91464"
     rx="33.67522"
     ry="33.675224"
     transform="scale(1,-1)" />
  <path
     d="m 50.919639,70.004709 c 0,-7.780914 6.304747,-14.087691 14.082326,-14.087691 3.731876,0 7.314372,1.477499 9.953415,4.125162 2.642319,2.638248 4.127601,6.224058 4.127601,9.958494 0,7.774188 -6.306058,14.08231 -14.082981,14.08231 -7.778235,0 -14.082981,-6.308122 -14.082981,-14.091726 z"
     stroke="#000000"
     stroke-width="2.763"
     id="path4-2"
     style="stroke-width:1.83403;stroke-miterlimit:4;stroke-dasharray:none;fill:#dcdcdc;fill-opacity:1" />
  <ellipse
     style="fill:#dcdcdc;fill-opacity:1;stroke:#000000;stroke-width:1.89254;stroke-linejoin:round;stroke-miterlimit:4;stroke-dasharray:none;stroke-opacity:1"
     id="path864-4"
     cx="173.619"
     cy="-300.91501"
     transform="scale(1,-1)"
     rx="24.053734"
     ry="24.053732" />
  <path
     style="fill:#f0f0f0;stroke:#000000;stroke-width:2.763;stroke-linecap:butt;stroke-linejoin:miter;stroke-opacity:1;stroke-miterlimit:4;stroke-dasharray:none;fill-opacity:1"
     d="m 110,140 15,-30 h 100 l 15,30 v 80 l -15,30 H 125 l -15,-30 z"
     id="path908" />
  <g
     inkscape:groupmode="layer"
     id="layer1"
     inkscape:label="Top Layer">
    <path
       style="opacity:1;fill:#dcdcdc;fill-opacity:1;stroke:#000000;stroke-width:2.42273;stroke-linecap:butt;stroke-linejoin:miter;stroke-miterlimit:4;stroke-dasharray:none;stroke-opacity:1"
       d="m 186.26168,109.89758 -26.32245,35.05121 v 70.10242 l 26.32245,35.05121 h 8.77415 l -26.32245,-35.05121 v -70.10242 l 26.32245,-35.05121 z"
       id="path866" />
  </g>
  <g
     inkscape:groupmode="layer"
     id="layer2"
     inkscape:label="Top Top Layer" />
  <text
     xml:space="preserve"
     style="font-size:40px;line-height:1.25;font-family:'DSEG14 Classic';-inkscape-font-specification:'DSEG14 Classic';fill:#ffffff;fill-opacity:1"
     x="142.47305"
     y="75.368034"
     id="text851"><tspan
       sodipodi:role="line"
       id="tspan849"
       x="142.47305"
       y="75.368034">00</tspan></text>
</svg>
